<svg width="16" height="16" viewBox="0 0 16 16" fill="none" xmlns="http://www.w3.org/2000/svg">
<path d="M5.52872 13.1379C5.40374 13.0129 5.33353 12.8434 5.33353 12.6666C5.33353 12.4898 5.40374 12.3203 5.52872 12.1953L9.72405 7.99994L5.52872 3.80461C5.46505 3.74311 5.41426 3.66954 5.37932 3.58821C5.34438 3.50687 5.32599 3.41939 5.32522 3.33087C5.32445 3.24235 5.34132 3.15457 5.37484 3.07264C5.40836 2.99071 5.45786 2.91627 5.52046 2.85368C5.58305 2.79108 5.65749 2.74158 5.73942 2.70806C5.82135 2.67454 5.90913 2.65767 5.99765 2.65844C6.08617 2.65921 6.17365 2.6776 6.25499 2.71254C6.33633 2.74748 6.40989 2.79826 6.47139 2.86194L11.1381 7.52861C11.263 7.65362 11.3332 7.82316 11.3332 7.99994C11.3332 8.17671 11.263 8.34625 11.1381 8.47127L6.47139 13.1379C6.34637 13.2629 6.17683 13.3331 6.00005 13.3331C5.82328 13.3331 5.65374 13.2629 5.52872 13.1379Z" fill="white"/>
</svg>
