<svg width="12" height="12" viewBox="0 0 12 12" fill="none" xmlns="http://www.w3.org/2000/svg">
<path d="M6.97002 2.50004L9.50052 5.03004L9.01952 5.51104C8.54895 5.47193 8.07551 5.53583 7.63215 5.6983C7.18878 5.86076 6.78615 6.11788 6.45226 6.45177C6.11837 6.78566 5.86124 7.1883 5.69878 7.63166C5.53631 8.07503 5.47241 8.54847 5.51152 9.01904L4.53152 9.99904C4.39295 10.1376 4.2206 10.2376 4.03152 10.289L1.47402 10.9865C1.41032 11.0038 1.34319 11.0039 1.27941 10.9869C1.21564 10.9699 1.15748 10.9364 1.11081 10.8897C1.06414 10.8431 1.03062 10.7849 1.01362 10.7211C0.996627 10.6574 0.996765 10.5902 1.01402 10.5265L1.71102 7.96854C1.76249 7.77946 1.86246 7.6071 2.00102 7.46854L6.97002 2.50004ZM10.5155 1.48504C10.8509 1.8206 11.0393 2.27561 11.0393 2.75004C11.0393 3.22446 10.8509 3.67947 10.5155 4.01504L10.0305 4.50004L7.50002 1.97004L7.98502 1.48504C8.15115 1.31884 8.3484 1.18701 8.5655 1.09706C8.78259 1.00711 9.01528 0.960815 9.25027 0.960815C9.48526 0.960815 9.71795 1.00711 9.93505 1.09706C10.1521 1.18701 10.3494 1.31884 10.5155 1.48504ZM7.14002 6.98704C7.17741 7.11634 7.18831 7.25186 7.17206 7.38548C7.15582 7.51909 7.11277 7.64805 7.04549 7.76463C6.97822 7.88121 6.8881 7.98301 6.78053 8.06393C6.67297 8.14484 6.55018 8.20321 6.41952 8.23554L6.12752 8.30754C6.08072 8.60697 6.08173 8.91193 6.13052 9.21104L6.40052 9.27604C6.53231 9.30778 6.65627 9.36599 6.76487 9.44713C6.87346 9.52826 6.96443 9.63063 7.03224 9.74801C7.10005 9.86539 7.14329 9.99533 7.15932 10.1299C7.17536 10.2645 7.16386 10.401 7.12552 10.531L7.03202 10.847C7.25202 11.04 7.50202 11.1965 7.77402 11.3075L8.02102 11.0485C8.11443 10.9503 8.22685 10.872 8.35144 10.8186C8.47603 10.7651 8.61019 10.7375 8.74577 10.7375C8.88135 10.7375 9.01551 10.7651 9.1401 10.8186C9.26469 10.872 9.37711 10.9503 9.47052 11.0485L9.71952 11.311C9.99025 11.201 10.2408 11.0467 10.461 10.8545L10.362 10.5115C10.3247 10.3822 10.3139 10.2467 10.3302 10.1131C10.3465 9.97956 10.3896 9.85064 10.457 9.73411C10.5243 9.61758 10.6144 9.51584 10.722 9.43498C10.8296 9.35412 10.9524 9.29581 11.083 9.26354L11.3745 9.19154C11.4214 8.89194 11.4204 8.58681 11.3715 8.28754L11.1015 8.22254C10.9697 8.19079 10.8458 8.13258 10.7372 8.05145C10.6286 7.97031 10.5376 7.86794 10.4698 7.75056C10.402 7.63318 10.3588 7.50324 10.3427 7.36863C10.3267 7.23403 10.3382 7.09756 10.3765 6.96754L10.47 6.65254C10.25 6.45856 9.99927 6.30259 9.72802 6.19104L9.48152 6.45054C9.3881 6.54887 9.27565 6.62718 9.15101 6.68069C9.02638 6.7342 8.89216 6.76179 8.75652 6.76179C8.62088 6.76179 8.48666 6.7342 8.36203 6.68069C8.23739 6.62718 8.12494 6.54887 8.03152 6.45054L7.78252 6.18804C7.51052 6.29804 7.26052 6.45304 7.04102 6.64404L7.14002 6.98704ZM8.75052 9.50004C8.35052 9.50004 8.02552 9.16404 8.02552 8.75004C8.02552 8.33554 8.35052 8.00004 8.75052 8.00004C9.15052 8.00004 9.47552 8.33554 9.47552 8.75004C9.47552 9.16404 9.15052 9.50004 8.75052 9.50004Z" fill="white"/>
</svg>
