<svg width="48" height="48" viewBox="0 0 48 48" fill="none" xmlns="http://www.w3.org/2000/svg">
<rect x="0.25" width="47.5" height="47.5" rx="23.75" fill="url(#paint0_radial_1_4837)" fill-opacity="0.1"/>
<rect x="0.75" y="0.5" width="46.5" height="46.5" rx="23.25" stroke="#2DCAFF" stroke-opacity="0.25"/>
<path d="M17.25 16C17.25 15.7348 17.1446 15.4804 16.9571 15.2929C16.7696 15.1054 16.5152 15 16.25 15C15.9848 15 15.7304 15.1054 15.5429 15.2929C15.3554 15.4804 15.25 15.7348 15.25 16V30C15.25 30.663 15.5134 31.2989 15.9822 31.7678C16.4511 32.2366 17.087 32.5 17.75 32.5H31.75C32.0152 32.5 32.2696 32.3946 32.4571 32.2071C32.6446 32.0196 32.75 31.7652 32.75 31.5C32.75 31.2348 32.6446 30.9804 32.4571 30.7929C32.2696 30.6054 32.0152 30.5 31.75 30.5H17.75C17.6174 30.5 17.4902 30.4473 17.3964 30.3536C17.3027 30.2598 17.25 30.1326 17.25 30V16ZM26 18.75C26 18.4848 26.1054 18.2304 26.2929 18.0429C26.4804 17.8554 26.7348 17.75 27 17.75H31.502C31.7672 17.75 32.0216 17.8554 32.2091 18.0429C32.3966 18.2304 32.502 18.4848 32.502 18.75L32.5 23.25C32.5 23.5152 32.3946 23.7696 32.2071 23.9571C32.0196 24.1446 31.7652 24.25 31.5 24.25C31.2348 24.25 30.9804 24.1446 30.7929 23.9571C30.6054 23.7696 30.5 23.5152 30.5 23.25V21.164L25.957 25.707C25.7695 25.8945 25.5152 25.9998 25.25 25.9998C24.9848 25.9998 24.7305 25.8945 24.543 25.707L22.75 23.914L20.207 26.457C20.0184 26.6392 19.7658 26.74 19.5036 26.7377C19.2414 26.7354 18.9906 26.6302 18.8052 26.4448C18.6198 26.2594 18.5146 26.0086 18.5123 25.7464C18.51 25.4842 18.6108 25.2316 18.793 25.043L22.043 21.793C22.2305 21.6055 22.4848 21.5002 22.75 21.5002C23.0152 21.5002 23.2695 21.6055 23.457 21.793L25.25 23.586L29.086 19.75H27C26.7348 19.75 26.4804 19.6446 26.2929 19.4571C26.1054 19.2696 26 19.0152 26 18.75Z" fill="#00BDDD"/>
<defs>
<radialGradient id="paint0_radial_1_4837" cx="0" cy="0" r="1" gradientUnits="userSpaceOnUse" gradientTransform="translate(24 23.75) rotate(90) scale(23.75)">
<stop stop-color="#2DCAFF"/>
<stop offset="0.738214" stop-color="#7DDEFF" stop-opacity="0.25"/>
</radialGradient>
</defs>
</svg>
