<svg width="16" height="16" viewBox="0 0 16 16" fill="none" xmlns="http://www.w3.org/2000/svg">
<path d="M7.99997 6.00329C8.70722 6.00329 9.3855 6.28424 9.88559 6.78434C10.3857 7.28444 10.6666 7.96272 10.6666 8.66996C10.6666 9.3772 10.3857 10.0555 9.88559 10.5556C9.3855 11.0557 8.70722 11.3366 7.99997 11.3366C7.29273 11.3366 6.61445 11.0557 6.11436 10.5556C5.61426 10.0555 5.33331 9.3772 5.33331 8.66996C5.33331 7.96272 5.61426 7.28444 6.11436 6.78434C6.61445 6.28424 7.29273 6.00329 7.99997 6.00329ZM7.99997 3.66663C11.0753 3.66663 13.7306 5.76663 14.4673 8.70929C14.4996 8.83792 14.4794 8.9741 14.4113 9.08787C14.3431 9.20165 14.2326 9.28369 14.104 9.31596C13.9753 9.34823 13.8392 9.32808 13.7254 9.25994C13.6116 9.1918 13.5296 9.08126 13.4973 8.95263C13.1891 7.72783 12.4808 6.64103 11.4846 5.86465C10.4885 5.08828 9.26157 4.66681 7.9986 4.66712C6.73563 4.66742 5.50894 5.08949 4.51316 5.86635C3.51738 6.6432 2.80955 7.73035 2.50197 8.95529C2.46744 9.08125 2.38498 9.18869 2.27225 9.25463C2.15952 9.32058 2.02546 9.33981 1.89874 9.30819C1.77203 9.27658 1.66271 9.19664 1.59416 9.08546C1.52562 8.97429 1.5033 8.84071 1.53197 8.71329C1.89349 7.2716 2.72628 5.992 3.89811 5.07767C5.06995 4.16335 6.51364 3.66672 7.99997 3.66663Z" fill="white"/>
</svg>
